#N canvas 526 111 1321 926 10;
#X obj 1131 825 * 1;
#X obj 1117 858 s \$0-r-vol;
#X obj 45 677 s \$0-r-sensor-1;
#X obj 179 679 s \$0-r-sensor-2;
#X obj 317 676 s \$0-r-sensor-3;
#X obj 443 675 s \$0-r-sensor-4;
#X obj 561 677 s \$0-r-sensor-5;
#X obj 686 675 s \$0-r-sensor-6;
#X obj 805 676 s \$0-r-sensor-7;
#X obj 937 674 s \$0-r-sensor-8;
#X obj 1116 790 ctlin 62;
#X obj 910 139 ctlin 58;
#X obj 911 177 s \$0-r-dst-mix;
#X obj 807 138 ctlin 54;
#X obj 808 181 s \$0-r-drv;
#X obj 560 139 ctlin 46;
#X obj 680 136 ctlin 50;
#X obj 434 138 ctlin 28;
#X obj 324 142 ctlin 24;
#X obj 169 142 ctlin 20;
#X obj 48 141 ctlin 16;
#X obj 169 186 s \$0-r-feedback;
#X obj 48 183 s \$0-r-del-mix;
#X msg 46 237 hyper lfo;
#X obj 47 288 s \$0-r-f-a;
#X obj 46 264 ctlin 17;
#X obj 168 281 s \$0-r-f-b;
#X obj 167 257 ctlin 21;
#X obj 317 280 s \$0-r-hold-1234;
#X obj 316 256 ctlin 25;
#X obj 439 251 ctlin 29;
#X obj 560 252 ctlin 47;
#X obj 687 273 s \$0-r-pitch-5678;
#X obj 686 249 ctlin 51;
#X obj 48 358 s \$0-r-mod-12;
#X obj 171 355 s \$0-r-sharp-12;
#X obj 319 356 s \$0-r-mod-34;
#X obj 440 356 s \$0-r-sharp-34;
#X obj 47 334 ctlin 18;
#X obj 170 331 ctlin 22;
#X obj 318 332 ctlin 26;
#X obj 440 328 ctlin 30;
#X obj 560 331 ctlin 48;
#X obj 683 329 ctlin 52;
#X obj 561 355 s \$0-r-mod-56;
#X obj 684 353 s \$0-r-sharp-56;
#X obj 815 353 s \$0-r-mod-78;
#X obj 935 354 s \$0-r-sharp-78;
#X obj 818 325 ctlin 56;
#X obj 933 327 ctlin 60;
#X obj 53 516 s \$0-r-sensor-1;
#X obj 46 540 s \$0-r-sensor-2;
#X obj 178 528 s \$0-r-fast-12;
#X obj 45 621 push_switch 3;
#X obj 179 624 push_switch 6;
#X obj 317 623 push_switch 9;
#X obj 443 624 push_switch 12;
#X obj 561 626 push_switch 15;
#X obj 686 621 push_switch 18;
#X obj 805 623 push_switch 21;
#X obj 934 630 push_switch 24;
#X obj 178 476 toggle_switch 4;
#X obj 442 471 toggle_switch 10;
#X obj 442 528 s \$0-r-fast-34;
#X obj 940 525 s \$0-r-fast-78;
#X obj 694 527 s \$0-r-fast-56;
#X obj 45 477 toggle_switch 1;
#X obj 316 509 s \$0-r-sensor-3;
#X obj 309 533 s \$0-r-sensor-4;
#X obj 308 470 toggle_switch 7;
#X obj 697 470 toggle_switch 16;
#X obj 565 469 toggle_switch 13;
#X obj 573 508 s \$0-r-sensor-5;
#X obj 566 532 s \$0-r-sensor-6;
#X obj 813 467 toggle_switch 19;
#X obj 940 469 toggle_switch 22;
#X obj 821 506 s \$0-r-sensor-7;
#X obj 814 530 s \$0-r-sensor-8;
#X obj 1134 240 toggle_switch 25;
#X obj 1088 338 toggle_switch 26;
#X obj 1101 468 toggle_switch 27;
#X obj 1088 363 s \$0-r-vibrato;
#X obj 1134 276 s \$0-r-total-fb;
#X obj 1101 505 s \$0-r-switch;
#X obj 805 218 ctlin 55;
#X obj 936 219 ctlin 59;
#X text 26 20 Midi CC control for parameters (made for Akai MidiMix
\, adapt it for your own device);
#X obj 927 279 s \$0-r-del-mod;
#X obj 816 276 s \$0-r-andor;
#N canvas 33 137 497 395 select_2_switch 0;
#X obj 54 52 inlet;
#X obj 52 282 outlet;
#X floatatom 52 250 5 0 0 0 - - -;
#X obj 51 162 < 20;
#X connect 0 0 3 0;
#X connect 2 0 1 0;
#X connect 3 0 2 0;
#X restore 809 247 pd select_2_switch;
#N canvas 33 137 749 497 select_3_switch 0;
#X obj 54 52 inlet;
#X obj 51 353 outlet;
#X obj 51 162 < 20;
#X obj 112 164 > 19;
#X floatatom 115 219 5 0 0 0 - - -;
#X msg 109 283 1;
#X obj 159 190 &&;
#X obj 167 161 < 40;
#X floatatom 231 220 5 0 0 0 - - -;
#X msg 231 285 2;
#X msg 42 281 0;
#X obj 234 166 > 39;
#X floatatom 46 215 5 0 0 0 - - -;
#X obj 228 252 select 1;
#X obj 114 251 select 1;
#X obj 36 254 select 1;
#X floatatom 416 223 5 0 0 0 - - -;
#X obj 413 255 select 1;
#X obj 266 196 &&;
#X obj 294 165 < 60;
#X obj 398 385 s \$0-r-lfo-wav;
#X obj 431 181 &&;
#X obj 399 151 > 59;
#X obj 459 150 < 70;
#X msg 416 288 0;
#X floatatom 569 223 5 0 0 0 - - -;
#X obj 566 255 select 1;
#X obj 584 181 &&;
#X msg 569 288 1;
#X obj 552 151 > 69;
#X obj 612 150 < 90;
#X connect 0 0 2 0;
#X connect 0 0 3 0;
#X connect 0 0 7 0;
#X connect 0 0 11 0;
#X connect 0 0 19 0;
#X connect 0 0 22 0;
#X connect 0 0 23 0;
#X connect 0 0 29 0;
#X connect 0 0 30 0;
#X connect 2 0 12 0;
#X connect 3 0 6 0;
#X connect 4 0 14 0;
#X connect 5 0 1 0;
#X connect 6 0 4 0;
#X connect 7 0 6 1;
#X connect 8 0 13 0;
#X connect 9 0 1 0;
#X connect 10 0 1 0;
#X connect 11 0 18 0;
#X connect 12 0 15 0;
#X connect 13 0 9 0;
#X connect 14 0 5 0;
#X connect 15 0 10 0;
#X connect 16 0 17 0;
#X connect 17 0 24 0;
#X connect 18 0 8 0;
#X connect 19 0 18 1;
#X connect 21 0 16 0;
#X connect 22 0 21 0;
#X connect 23 0 21 1;
#X connect 24 0 20 0;
#X connect 25 0 26 0;
#X connect 26 0 28 0;
#X connect 27 0 25 0;
#X connect 28 0 20 0;
#X connect 29 0 27 0;
#X connect 30 0 27 1;
#X restore 936 248 pd select_3_switch;
#X obj 324 184 s \$0-r-mod-1;
#X obj 434 183 s \$0-r-mod-2;
#X obj 560 181 s \$0-r-time-1;
#X obj 678 180 s \$0-r-time-2;
#X obj 438 276 s \$0-r-pitch-1234;
#X obj 561 276 s \$0-r-hold-5678;
#X obj 186 862 s \$0-r-tune-2;
#X obj 317 865 s \$0-r-tune-3;
#X obj 435 865 s \$0-r-tune-4;
#X obj 952 859 s \$0-r-tune-8;
#X obj 566 861 s \$0-r-tune-5;
#X obj 689 861 s \$0-r-tune-6;
#X obj 811 856 s \$0-r-tune-7;
#X obj 183 771 ctlin 23;
#X obj 314 773 ctlin 27;
#X obj 433 772 ctlin 31;
#X obj 562 771 ctlin 49;
#X obj 686 766 ctlin 53;
#X obj 807 765 ctlin 57;
#X obj 946 767 ctlin 61;
#X obj 40 772 ctlin 19;
#X obj 51 863 s \$0-r-tune-1;
#X obj 53 735 r \$0-r-tune-add-1;
#X obj 107 820 +, f 5;
#X obj 124 759 t a f;
#X obj 143 785 bng 15 250 50 0 empty empty empty 17 7 0 10 -262144
-1 -1;
#X obj 229 819 +, f 5;
#X obj 246 758 t a f;
#X obj 265 784 bng 15 250 50 0 empty empty empty 17 7 0 10 -262144
-1 -1;
#X obj 357 817 +, f 5;
#X obj 374 756 t a f;
#X obj 393 782 bng 15 250 50 0 empty empty empty 17 7 0 10 -262144
-1 -1;
#X obj 482 818 +, f 5;
#X obj 499 757 t a f;
#X obj 518 783 bng 15 250 50 0 empty empty empty 17 7 0 10 -262144
-1 -1;
#X obj 610 821 +, f 5;
#X obj 627 760 t a f;
#X obj 646 786 bng 15 250 50 0 empty empty empty 17 7 0 10 -262144
-1 -1;
#X obj 733 823 +, f 5;
#X obj 750 762 t a f;
#X obj 769 788 bng 15 250 50 0 empty empty empty 17 7 0 10 -262144
-1 -1;
#X obj 858 821 +, f 5;
#X obj 875 760 t a f;
#X obj 894 786 bng 15 250 50 0 empty empty empty 17 7 0 10 -262144
-1 -1;
#X obj 995 820 +, f 5;
#X obj 1012 759 t a f;
#X obj 1031 785 bng 15 250 50 0 empty empty empty 17 7 0 10 -262144
-1 -1;
#X obj 175 734 r \$0-r-tune-add-2;
#X obj 303 732 r \$0-r-tune-add-3;
#X obj 428 733 r \$0-r-tune-add-4;
#X obj 556 736 r \$0-r-tune-add-5;
#X obj 804 736 r \$0-r-tune-add-7;
#X obj 679 738 r \$0-r-tune-add-6;
#X obj 941 735 r \$0-r-tune-add-8;
#X connect 0 0 1 0;
#X connect 10 0 0 0;
#X connect 11 0 12 0;
#X connect 13 0 14 0;
#X connect 15 0 93 0;
#X connect 16 0 94 0;
#X connect 17 0 92 0;
#X connect 18 0 91 0;
#X connect 19 0 21 0;
#X connect 20 0 22 0;
#X connect 25 0 24 0;
#X connect 27 0 26 0;
#X connect 29 0 28 0;
#X connect 30 0 95 0;
#X connect 31 0 96 0;
#X connect 33 0 32 0;
#X connect 38 0 34 0;
#X connect 39 0 35 0;
#X connect 40 0 36 0;
#X connect 41 0 37 0;
#X connect 42 0 44 0;
#X connect 43 0 45 0;
#X connect 48 0 46 0;
#X connect 49 0 47 0;
#X connect 53 0 2 0;
#X connect 54 0 3 0;
#X connect 55 0 4 0;
#X connect 56 0 5 0;
#X connect 57 0 6 0;
#X connect 58 0 7 0;
#X connect 59 0 8 0;
#X connect 60 0 9 0;
#X connect 61 0 52 0;
#X connect 62 0 63 0;
#X connect 66 0 50 0;
#X connect 66 0 51 0;
#X connect 69 0 67 0;
#X connect 69 0 68 0;
#X connect 70 0 65 0;
#X connect 71 0 72 0;
#X connect 71 0 73 0;
#X connect 74 0 76 0;
#X connect 74 0 77 0;
#X connect 75 0 64 0;
#X connect 78 0 82 0;
#X connect 79 0 81 0;
#X connect 80 0 83 0;
#X connect 84 0 89 0;
#X connect 85 0 90 0;
#X connect 89 0 88 0;
#X connect 90 0 87 0;
#X connect 104 0 117 0;
#X connect 105 0 120 0;
#X connect 106 0 123 0;
#X connect 107 0 126 0;
#X connect 108 0 129 0;
#X connect 109 0 132 0;
#X connect 110 0 135 0;
#X connect 111 0 114 0;
#X connect 113 0 115 0;
#X connect 114 0 112 0;
#X connect 115 0 114 1;
#X connect 115 1 116 0;
#X connect 116 0 114 0;
#X connect 117 0 97 0;
#X connect 118 0 117 1;
#X connect 118 1 119 0;
#X connect 119 0 117 0;
#X connect 120 0 98 0;
#X connect 121 0 120 1;
#X connect 121 1 122 0;
#X connect 122 0 120 0;
#X connect 123 0 99 0;
#X connect 124 0 123 1;
#X connect 124 1 125 0;
#X connect 125 0 123 0;
#X connect 126 0 101 0;
#X connect 127 0 126 1;
#X connect 127 1 128 0;
#X connect 128 0 126 0;
#X connect 129 0 102 0;
#X connect 130 0 129 1;
#X connect 130 1 131 0;
#X connect 131 0 129 0;
#X connect 132 0 103 0;
#X connect 133 0 132 1;
#X connect 133 1 134 0;
#X connect 134 0 132 0;
#X connect 135 0 100 0;
#X connect 136 0 135 1;
#X connect 136 1 137 0;
#X connect 137 0 135 0;
#X connect 138 0 118 0;
#X connect 139 0 121 0;
#X connect 140 0 124 0;
#X connect 141 0 127 0;
#X connect 142 0 133 0;
#X connect 143 0 130 0;
#X connect 144 0 136 0;
