#N canvas 53 174 1538 768 10;
#X obj 48 43 ctlin 74;
#X obj 207 43 ctlin 71;
#X obj 55 231 ctlin 7;
#X obj 82 268 * 1;
#X obj 492 44 ctlin 75;
#X obj 364 44 ctlin 73;
#X obj 510 331 ctlin 72;
#X obj 631 47 ctlin 91;
#X obj 620 216 ctlin 93;
#X obj 637 357 ctlin 10;
#X obj 521 362 * 1;
#X obj 631 247 * 1;
#X obj 648 388 * 1;
#X obj 48 115 s \$0-r-tune-1;
#X obj 205 116 s \$0-r-tune-2;
#X obj 66 85 * 1;
#X obj 231 85 * 1;
#X obj 357 116 s \$0-r-tune-3;
#X obj 482 115 s \$0-r-tune-4;
#X obj 503 75 * 1;
#X obj 376 80 * 1;
#X obj 642 78 * 1;
#X obj 636 426 s \$0-r-tune-8;
#X obj 491 430 s \$0-r-tune-5;
#X obj 630 116 s \$0-r-tune-6;
#X obj 601 309 s \$0-r-tune-7;
#X obj 56 299 s \$0-r-vol;
#X obj 69 600 * 1;
#X obj 42 563 ctlin 21;
#X obj 43 631 s \$0-r-sensor-1;
#X obj 205 601 * 1;
#X obj 178 564 ctlin 22;
#X obj 179 632 s \$0-r-sensor-2;
#X obj 347 600 * 1;
#X obj 320 563 ctlin 23;
#X obj 321 631 s \$0-r-sensor-3;
#X obj 465 601 * 1;
#X obj 438 564 ctlin 24;
#X obj 439 632 s \$0-r-sensor-4;
#X obj 587 599 * 1;
#X obj 560 562 ctlin 25;
#X obj 561 630 s \$0-r-sensor-5;
#X obj 706 598 * 1;
#X obj 679 561 ctlin 26;
#X obj 680 629 s \$0-r-sensor-6;
#X obj 817 597 * 1;
#X obj 936 596 * 1;
#X obj 790 560 ctlin 27;
#X obj 791 628 s \$0-r-sensor-7;
#X obj 909 559 ctlin 28;
#X obj 910 627 s \$0-r-sensor-8;
#X text 49 163 Midi CC control for a few parameters (made for Behringer
UMA25S \, adapt it for your own device);
#X connect 0 0 15 0;
#X connect 1 0 16 0;
#X connect 2 0 3 0;
#X connect 3 0 26 0;
#X connect 4 0 19 0;
#X connect 5 0 20 0;
#X connect 6 0 10 0;
#X connect 7 0 21 0;
#X connect 8 0 11 0;
#X connect 9 0 12 0;
#X connect 10 0 23 0;
#X connect 11 0 25 0;
#X connect 12 0 22 0;
#X connect 15 0 13 0;
#X connect 16 0 14 0;
#X connect 19 0 18 0;
#X connect 20 0 17 0;
#X connect 21 0 24 0;
#X connect 27 0 29 0;
#X connect 28 0 27 0;
#X connect 30 0 32 0;
#X connect 31 0 30 0;
#X connect 33 0 35 0;
#X connect 34 0 33 0;
#X connect 36 0 38 0;
#X connect 37 0 36 0;
#X connect 39 0 41 0;
#X connect 40 0 39 0;
#X connect 42 0 44 0;
#X connect 43 0 42 0;
#X connect 45 0 48 0;
#X connect 46 0 50 0;
#X connect 47 0 45 0;
#X connect 49 0 46 0;
