#N canvas 76 133 533 449 10;
#X obj 12 135 t b b;
#X msg 47 327 0;
#X obj 7 384 outlet;
#X obj 25 39 notein;
#X msg 12 170 1;
#X obj 50 299 delay 100;
#X obj 12 93 sel \$1;
#X obj 137 28 notein;
#X obj 12 93 sel \$1;
#X obj 172 109 == 0;
#X obj 170 188 &&;
#X floatatom 193 223 5 0 0 0 - - -, f 5;
#X obj 101 110 == \$1;
#X floatatom 48 236 5 0 0 0 - - -, f 5;
#X floatatom 78 65 5 0 0 0 - - -, f 5;
#X obj 108 233 select 1;
#X connect 0 0 4 0;
#X connect 1 0 2 0;
#X connect 3 0 6 0;
#X connect 3 0 12 0;
#X connect 3 0 14 0;
#X connect 4 0 2 0;
#X connect 4 0 13 0;
#X connect 5 0 1 0;
#X connect 6 0 0 0;
#X connect 7 1 9 0;
#X connect 9 0 10 1;
#X connect 10 0 11 0;
#X connect 10 0 15 0;
#X connect 12 0 10 0;
#X connect 15 0 5 0;
