#N canvas 2062 115 1022 871 10;
#X declare -path ./abs;
#N canvas 49 145 1011 935 gui 0;
#X obj 11 11 cnv 19 383 675 empty empty LIRA•8 308 195 0 20 -256626
-1 0;
#X obj 38 458 vsl 19 128 0 127 0 0 \$0-s-tune-1 \$0-r-tune-1 TUNE -5
-9 0 14 -262144 -1 -1 6200 1;
#X obj 41 413 hsl 54 19 0 127 0 0 \$0-s-sharp-12 \$0-r-sharp-12 SHARP
5 -7 0 14 -1 -262144 -1 1711 1;
#X obj 41 373 hsl 54 19 0 127 0 0 \$0-s-mod-12 \$0-r-mod-12 MOD 14
-7 0 14 -1 -262144 -1 1711 1;
#X obj 78 458 vsl 19 128 0 127 0 0 \$0-s-tune-2 \$0-r-tune-2 TUNE -5
-9 0 14 -262144 -1 -1 8146 1;
#X obj 59 604 tgl 17 0 \$0-s-fast-12 \$0-r-fast-12 FAST -5 -7 0 12
-262144 -1 -1 1 1;
#X obj 33 626 cnv 19 29 50 empty empty empty 20 12 0 14 -1 -66577 0
;
#X obj 38 650 tgl 19 0 \$0-s-sensor-1 \$0-r-sensor-1 1 5 -10 0 14 -262144
-1 -262144 0 1;
#X obj 73 626 cnv 19 29 50 empty empty empty 20 12 0 14 -1 -66577 0
;
#X obj 78 650 tgl 19 0 \$0-s-sensor-2 \$0-r-sensor-2 2 5 -10 0 14 -262144
-1 -262144 0 1;
#X obj 123 626 cnv 19 29 50 empty empty empty 20 12 0 14 -1 -66577
0;
#X obj 128 650 tgl 19 0 \$0-s-sensor-3 \$0-r-sensor-3 3 5 -10 0 14
-262144 -1 -262144 0 1;
#X obj 163 626 cnv 19 29 50 empty empty empty 20 12 0 14 -1 -66577
0;
#X obj 168 650 tgl 19 0 \$0-s-sensor-4 \$0-r-sensor-4 4 5 -10 0 14
-262144 -1 -262144 0 1;
#X obj 213 626 cnv 19 29 50 empty empty empty 20 12 0 14 -1 -66577
0;
#X obj 218 650 tgl 19 0 \$0-s-sensor-5 \$0-r-sensor-5 5 5 -10 0 14
-262144 -1 -262144 0 1;
#X obj 253 626 cnv 19 29 50 empty empty empty 20 12 0 14 -1 -66577
0;
#X obj 258 650 tgl 19 0 \$0-s-sensor-6 \$0-r-sensor-6 6 5 -10 0 14
-262144 -1 -262144 0 1;
#X obj 303 626 cnv 19 29 50 empty empty empty 20 12 0 14 -1 -66577
0;
#X obj 308 650 tgl 19 0 \$0-s-sensor-7 \$0-r-sensor-7 7 5 -10 0 14
-262144 -1 -262144 0 1;
#X obj 343 626 cnv 19 29 50 empty empty empty 20 12 0 14 -1 -66577
0;
#X obj 348 650 tgl 19 0 \$0-s-sensor-8 \$0-r-sensor-8 8 5 -10 0 14
-262144 -1 -262144 0 1;
#X obj 39 289 hsl 128 19 0 127 0 0 \$0-s-pitch-1234 \$0-r-pitch-1234
PITCH 40 -7 0 14 -1 -262144 -1 6400 1;
#X obj 239 289 hsl 128 19 0 127 0 0 \$0-s-pitch-5678 \$0-r-pitch-5678
PITCH 40 -7 0 14 -1 -262144 -1 6400 1;
#X obj 39 333 hradio 19 1 0 3 \$0-s-source-12 \$0-r-source-12 OFF 17
-7 0 14 -262144 -1 -1 1;
#X obj 128 458 vsl 19 128 0 127 0 0 \$0-s-tune-3 \$0-r-tune-3 TUNE
-5 -9 0 14 -262144 -1 -1 5796 1;
#X obj 168 458 vsl 19 128 0 127 0 0 \$0-s-tune-4 \$0-r-tune-4 TUNE
-5 -10 0 14 -262144 -1 -1 8300 1;
#X obj 218 458 vsl 19 128 0 127 0 0 \$0-s-tune-5 \$0-r-tune-5 TUNE
-5 -10 0 14 -262144 -1 -1 8287 1;
#X obj 258 458 vsl 19 128 0 127 0 0 \$0-s-tune-6 \$0-r-tune-6 TUNE
-5 -10 0 14 -262144 -1 -1 8462 1;
#X obj 308 458 vsl 19 128 0 127 0 0 \$0-s-tune-7 \$0-r-tune-7 TUNE
-5 -10 0 14 -262144 -1 -1 9037 1;
#X obj 348 458 vsl 19 128 0 127 0 0 \$0-s-tune-8 \$0-r-tune-8 TUNE
-5 -10 0 14 -262144 -1 -1 8525 1;
#X obj 131 413 hsl 54 19 0 127 0 0 \$0-s-sharp-34 \$0-r-sharp-34 SHARP
5 -7 0 14 -1 -262144 -1 2880 1;
#X obj 221 413 hsl 54 19 0 127 0 0 \$0-s-sharp-56 \$0-r-sharp-56 SHARP
5 -7 0 14 -1 -262144 -1 1669 1;
#X obj 311 413 hsl 54 19 0 127 0 0 \$0-s-sharp-78 \$0-r-sharp-78 SHARP
5 -7 0 14 -1 -262144 -1 2000 1;
#X obj 131 373 hsl 54 19 0 127 0 0 \$0-s-mod-34 \$0-r-mod-34 MOD 14
-7 0 14 -1 -262144 -1 2587 1;
#X obj 221 373 hsl 54 19 0 127 0 0 \$0-s-mod-56 \$0-r-mod-56 MOD 14
-7 0 14 -1 -262144 -1 1711 1;
#X obj 311 373 hsl 54 19 0 127 0 0 \$0-s-mod-78 \$0-r-mod-78 MOD 14
-7 0 14 -1 -262144 -1 0 1;
#X obj 149 604 tgl 17 0 \$0-s-fast-34 \$0-r-fast-34 FAST -5 -7 0 12
-262144 -1 -1 1 1;
#X obj 239 604 tgl 17 0 \$0-s-fast-56 \$0-r-fast-56 FAST -5 -7 0 12
-262144 -1 -1 1 1;
#X obj 329 604 tgl 17 0 \$0-s-fast-78 \$0-r-fast-78 FAST -5 -7 0 12
-262144 -1 -1 1 1;
#X obj 111 425 cnv 3 3 200 empty empty empty 20 12 0 14 -1 -66577 0
;
#X obj 201 385 cnv 3 3 240 empty empty empty 20 12 0 14 -1 -66577 0
;
#X obj 381 385 cnv 3 3 240 empty empty empty 20 12 0 14 -1 -66577 0
;
#X obj 21 385 cnv 3 3 240 empty empty empty 20 12 0 14 -1 -66577 0
;
#X obj 98 421 cnv 3 29 3 empty empty empty 20 12 0 14 -1 -66577 0;
#X obj 188 381 cnv 3 29 3 empty empty empty 20 12 0 14 -1 -66577 0
;
#X obj 278 421 cnv 3 29 3 empty empty empty 20 12 0 14 -1 -66577 0
;
#X obj 21 381 cnv 3 16 3 empty empty empty 20 12 0 14 -1 -66577 0;
#X obj 368 381 cnv 3 16 3 empty empty empty 20 12 0 14 -1 -66577 0
;
#X obj 103 626 cnv 3 19 3 empty empty empty 20 12 0 14 -1 -66577 0
;
#X obj 283 626 cnv 3 19 3 empty empty empty 20 12 0 14 -1 -66577 0
;
#X obj 193 626 cnv 3 19 3 empty empty empty 20 12 0 14 -1 -66577 0
;
#X obj 21 626 cnv 3 11 3 empty empty empty 20 12 0 14 -1 -66577 0;
#X obj 291 425 cnv 3 3 200 empty empty empty 20 12 0 14 -1 -66577 0
;
#X obj 373 626 cnv 3 11 3 empty empty empty 20 12 0 14 -1 -66577 0
;
#X obj 239 246 hsl 128 19 0 127 0 0 \$0-s-hold-5678 \$0-r-hold-5678
HOLD 45 -7 0 14 -1 -262144 -1 0 1;
#X obj 194 265 tgl 17 0 \$0-s-switch \$0-r-switch SWITCH -13 -7 0 12
-262144 -1 -1 1 1;
#X obj 164 220 tgl 17 0 \$0-s-total-fb \$0-r-total-fb TOTAL-FB -20
-7 0 12 -262144 -1 -1 1 1;
#X obj 234 219 tgl 17 0 \$0-s-vibrato \$0-r-vibrato VIBRATO -15 -7
0 12 -262144 -1 -1 0 1;
#X msg 409 753 8;
#X obj 409 774 until;
#X obj 409 795 i;
#X obj 439 795 + 1;
#X obj 409 837 t f f;
#X obj 409 910 list prepend;
#X obj 478 863 + 1;
#X obj 409 858 + 1;
#X obj 409 816 % 8;
#X obj 11 172 cnv 19 95 20 empty empty HYPER-LFO 5 11 0 14 -1 -262144
0;
#X obj 299 172 cnv 19 95 20 empty empty DISTORTION 10 11 0 14 -1 -262144
0;
#X obj 155 172 cnv 19 95 20 empty empty MOD-DELAY 12 11 0 14 -1 -262144
0;
#X obj 111 11 cnv 3 3 160 empty empty empty 20 12 0 14 -1 -66577 0
;
#X obj 291 11 cnv 3 3 160 empty empty empty 20 12 0 14 -1 -66577 0
;
#X obj 11 172 cnv 3 383 3 empty empty empty 20 12 0 14 -1 -66577 0
;
#X obj 129 333 hradio 19 1 0 3 \$0-s-source-34 \$0-r-source-34 OFF
17 -7 0 14 -262144 -1 -1 1;
#X obj 219 333 hradio 19 1 0 3 \$0-s-source-56 \$0-r-source-56 OFF
17 -7 0 14 -262144 -1 -1 1;
#X obj 309 333 hradio 19 1 0 3 \$0-s-source-78 \$0-r-source-78 OFF
17 -7 0 14 -262144 -1 -1 1;
#X obj 39 246 hsl 128 19 0 127 0 0 \$0-s-hold-1234 \$0-r-hold-1234
HOLD 45 -7 0 14 -1 -262144 -1 6600 1;
#X obj 409 931 route 1 2 3 4 5 6 7 8;
#X msg 580 884 receive $\\\$0-tune-\\\\\\\\\\\\\\\\\\\\\\\\\\\\\\\\\\\\\\\\\\\\\\\\\\\\\\\\\\\\\\\\\\\\\\\\\\\\\\\\\\\\\\\\\\\\\\\\\\\\\\\\\\\\\\\\\\\\\\\\\\\\\\\\\\\\\\\\\\\\\\\\\\\\\\\\\\\\\\\\\\\\\\\\\\\\\\\\\\\\\\\\\\\\\\\\\\\\\\\\\\\\\\\\\\\\\\\\\\\\\\\\\\\\\\\\\\\\\\\\\\\\\\\\\\\\\\\\\\\\\\\\\\\\\\\\\\\\\\\\\\\\\\\\\\\\\\\\\\\\\\\\\\\\\\\\\\\\\\\\\\\\\\\\\\\\\\\\\\\\\\\\\\\\\\\\\\\\\\\\\\\\\\\\\\\\\\\\\\\\\\\\\\\\\\\\\\\\\\\\\\\\\\\\\\\\\\\\\\\\\\\\\\\\\\\\\\\\\\\\\\\\\\\\\\\\\\\\\\\\\\\\\\\\\\\\\\\\\\\\\\\\\\\\\\\\\\\\\\\\\\\\\\\\\\\\\\\\\\\\\\\\\\\\\\\\\\\\\\\\\\\\\\\\\\\\\\\\\\\\\\\\\\\\\\\\\\\\\\\\\\\\\\\\\\\\\\\\\\\\\\\\\\\\\\\\\\\\\\\\\\\\\\\\\\\\\\\\\\\\\\\\\\\\\\\\\\\\\\\\\\\\\\\\\\\\\\\\\\\\\\\\\\\\\\\\\\\\\\\\\\\\\\\\\\\\\\\\\\\\\\\\\\\\\\\\\\\\\\\\\\\\\\\\\\\\\\\\\\\\\\\\\\\\\\\\\\\\\\\\\\\\\\\\\\\\\\\\\\\\\\\\\\\\\\\\\\\\\\\\\\\\\\\\\\\\\\\\\\\\\\\\\\\\\\\\\\\\\\\\\\\\\\\\\\\\\\\\\\\\\\\\\\\\\\\\\\\\\\\\\\\\\\\\\\\\\\\\\\\\\\\\\\\\\\\\\\\\\\\\\\\\\\\\\\\\\\\\\\\\\\\\\\\\\\\\\\\\\\\\\\\\\\\\\\\\\\\\\\\\\\\\\\\\\\\\\\\\\\\\\\\\\\\\\\\\\\\\\\\\\\\\\\\\\\\\\\\\\\\\\\\\\\\\\\\\\\\\\\\\\\\\\\\\\\\\\\\\\\\\\\\\\\\\\\\\\\\\\\\\\\\\\\\\\\\\\\\\\\\\\\\\\\\\\\\\\\\\\\\\\\\\\\\\\\\\\\\\\\\\\\\\\\\\\\\\\\\\\\\\\\\\\\\\\\\\\\\\\\\\\\\\\\\\\\\\\\\\\\\\\\\\\\\\\\\\\\\\\\\\\\\\\\\\\\\\\\\\\\\\\\\\\\\\\\\\\\\\\\\\\\\\\\\\\\\\\\\\\\\\\\\\\\\\\\\\\\\\\\\\\\\\\\\\\\\\\\\\\\\\\\\\\\\\\\\\\\\\\\\\\\\\\\\\\\\\\\\\\\\\\\\\\\\\\\\\\\\\\\\\\\\\\\\\\\\\\\\\\\\\\\\\\\\\\\\\\\\\\\\\\\\\\\\\\\\\\\\\\\\\\\\\\\\\\\\\\\\\\\\\\\\\\\\\\\\\\\\\\\\\\\\\\\\\\\\\\\\\\\\\\\\\\\\\\\\\\\\\\\\\\\\\\\\\\\\\\\\\\\\\\\\\\\\\\\\\\\\\\\\\\\\\\\\\\\\\\\\\\\\\\\\\\\\\\\\\\\\\\\\\\\\\\\\\\\\\\\\\\\\\\\\\\\\\\\\\\\\\\\\\\\\\\\\\\\\\\\\\\\\\\\\\\\\\\\\\\\\\\\\\\\\\\\\\\\\\\\\\\\\\\\\\\\\\\\\\\\\\\\\\\\\\\\\\\\\\\\\\\\\\\\\\\\\\\\\\\\\\\\\\\\\\\\\\\\\\\\\\\\\\\\\\\\\\\\\\\\\\\\\\\\\\\\\\\\\\\\\\\\\\\\\\\\\\\\\\\\\\\\\\\\\\\\\\\\\\\\\\\\\\*
;
#X obj 120 147 hradio 19 1 0 2 \$0-s-lfo-wav \$0-r-lfo-wav TRI 0 -8
0 14 -1 -262144 -1 0;
#X obj 120 111 hradio 19 1 0 3 \$0-s-del-mod \$0-r-del-mod LFO 0 -7
0 14 -1 -262144 -1 2;
#X obj 188 73 hsl 95 19 0 127 0 0 \$0-s-time-2 \$0-r-time-2 TIME-2
23 -7 0 14 -1 -262144 -1 0 1;
#X obj 123 73 hsl 54 19 0 127 0 0 \$0-s-mod-2 \$0-r-mod-2 MOD-2 6 -7
0 14 -1 -262144 -1 3300 1;
#X obj 188 37 hsl 95 19 0 127 0 0 \$0-s-time-1 \$0-r-time-1 TIME-1
23 -8 0 14 -1 -262144 -1 4400 1;
#X obj 123 37 hsl 54 19 0 127 0 0 \$0-s-mod-1 \$0-r-mod-1 MOD-1 6 -7
0 14 -1 -262144 -1 3500 1;
#X obj 365 35 vsl 19 128 0 127 0 0 \$0-s-vol \$0-r-vol VOL -2 -9 0
14 -1 -262144 -1 10400 1;
#X obj 335 35 vsl 19 128 0 127 0 0 \$0-s-dst-mix \$0-r-dst-mix MIX
-2 -9 0 14 -1 -262144 -1 12100 1;
#X obj 305 35 vsl 19 128 0 127 0 0 \$0-s-drv \$0-r-drv DRV -2 -9 0
14 -1 -262144 -1 8300 1;
#X obj 49 34 vsl 19 128 0 127 0 0 \$0-s-f-b \$0-r-f-b F-B -2 -9 0 14
-1 -262144 -1 5300 1;
#X obj 19 34 vsl 19 128 0 127 0 0 \$0-s-f-a \$0-r-f-a F-A -2 -9 0 14
-1 -228856 -1 3700 1;
#X obj 79 32 vradio 19 1 0 2 \$0-s-andor \$0-r-andor AND -2 -7 0 14
-1 -262144 -1 0;
#X obj 79 81 bng 19 50 10 0 empty \$0-r-led empty 17 7 0 10 -1 -4034
-1;
#X obj 321 213 cnv 15 15 15 empty empty ORGANISMIC 0 8 0 12 -256626
-1 0;
#X obj 323 225 cnv 15 15 15 empty empty SYNTHESIZER 0 8 0 10 -256626
-1 0;
#X obj 66 393 cnv 4 4 4 empty empty empty 20 12 0 14 -1 -66577 0;
#N canvas 191 498 1414 497 gui.link 0;
#X obj 394 178 gui.link \$0 1 tune-1;
#X obj 394 218 gui.link \$0 3 tune-3;
#X obj 394 238 gui.link \$0 4 tune-4;
#X obj 394 268 gui.link \$0 5 tune-5;
#X obj 394 288 gui.link \$0 6 tune-6;
#X obj 394 308 gui.link \$0 7 tune-7;
#X obj 394 328 gui.link \$0 8 tune-8;
#X obj 394 198 gui.link \$0 2 tune-2;
#X obj 524 178 gui.link \$0 9 fast-12;
#X obj 524 198 gui.link \$0 10 fast-34;
#X obj 524 218 gui.link \$0 11 fast-56;
#X obj 524 238 gui.link \$0 12 fast-78;
#X obj 524 268 gui.link \$0 13 sharp-12;
#X obj 524 288 gui.link \$0 14 sharp-34;
#X obj 524 308 gui.link \$0 15 sharp-56;
#X obj 524 328 gui.link \$0 16 sharp-78;
#X obj 674 178 gui.link \$0 17 mod-12;
#X obj 674 198 gui.link \$0 18 mod-34;
#X obj 674 218 gui.link \$0 19 mod-56;
#X obj 674 238 gui.link \$0 20 mod-78;
#X obj 674 268 gui.link \$0 21 source-12;
#X obj 674 289 gui.link \$0 22 source-34;
#X obj 674 308 gui.link \$0 23 source-56;
#X obj 674 328 gui.link \$0 24 source-78;
#X obj 208 326 text define \$0-parameters;
#X obj 58 258 r \$0-write;
#X obj 208 207 t b b;
#X obj 208 249 s \$0-loadbang-1;
#X obj 235 228 s \$0-loadbang-0;
#X msg 208 300 read ./parameters.txt;
#X msg 58 300 write ./parameters.txt;
#X obj 208 279 r \$0-loadbang-0;
#X obj 208 186 loadbang;
#X obj 834 178 gui.link \$0 25 pitch-1234;
#X obj 834 198 gui.link \$0 26 pitch-5678;
#X obj 834 228 gui.link \$0 27 hold-1234;
#X obj 834 248 gui.link \$0 28 hold-5678;
#X obj 834 298 gui.link \$0 30 total-fb;
#X obj 834 278 gui.link \$0 29 switch;
#X obj 834 318 gui.link \$0 31 vibrato;
#X obj 1004 178 gui.link \$0 32 drv;
#X obj 1004 218 gui.link \$0 34 vol;
#X obj 1004 198 gui.link \$0 33 dst-mix;
#X obj 1004 248 gui.link \$0 35 f-a;
#X obj 1004 268 gui.link \$0 36 f-b;
#X obj 1004 288 gui.link \$0 37 andor;
#X obj 1004 308 gui.link \$0 38 link;
#X obj 1154 178 gui.link \$0 39 time-1;
#X obj 1154 198 gui.link \$0 40 time-2;
#X obj 1154 218 gui.link \$0 41 feedback;
#X obj 1154 238 gui.link \$0 42 del-mix;
#X obj 1154 268 gui.link \$0 43 mod-1;
#X obj 1154 288 gui.link \$0 44 mod-2;
#X obj 1154 308 gui.link \$0 45 del-mod;
#X obj 1154 328 gui.link \$0 46 lfo-wav;
#X obj 58 279 del 500;
#X connect 25 0 55 0;
#X connect 26 0 27 0;
#X connect 26 1 28 0;
#X connect 29 0 24 0;
#X connect 30 0 24 0;
#X connect 31 0 29 0;
#X connect 32 0 26 0;
#X connect 55 0 30 0;
#X restore 29 750 pd gui.link;
#X obj 29 710 declare -path ./abs;
#N canvas 2098 209 801 242 keyboard 0;
#X obj 14 41 s \$0-r-sensor-1;
#X obj 114 41 s \$0-r-sensor-2;
#X obj 214 41 s \$0-r-sensor-3;
#X obj 314 41 s \$0-r-sensor-4;
#X obj 14 81 s \$0-r-sensor-5;
#X obj 114 81 s \$0-r-sensor-6;
#X obj 214 81 s \$0-r-sensor-7;
#X obj 314 81 s \$0-r-sensor-8;
#X obj 14 20 key.tgl 49;
#X obj 114 20 key.tgl 50;
#X obj 214 20 key.tgl 51;
#X obj 314 20 key.tgl 52;
#X obj 14 60 key.tgl 53;
#X obj 114 60 key.tgl 54;
#X obj 214 60 key.tgl 55;
#X obj 314 60 key.tgl 56;
#X connect 8 0 0 0;
#X connect 9 0 1 0;
#X connect 10 0 2 0;
#X connect 11 0 3 0;
#X connect 12 0 4 0;
#X connect 13 0 5 0;
#X connect 14 0 6 0;
#X connect 15 0 7 0;
#X restore 29 730 pd keyboard;
#X obj 98 381 cnv 3 10 3 empty empty empty 20 12 0 14 -1 -66577 0;
#X obj 117 381 cnv 3 10 3 empty empty empty 20 12 0 14 -1 -66577 0
;
#X obj 97 341 cnv 3 11 3 empty empty empty 20 12 0 14 -1 -66577 0;
#X obj 117 341 cnv 3 11 3 empty empty empty 20 12 0 14 -1 -66577 0
;
#X obj 105 345 cnv 3 3 35 empty empty empty 20 12 0 14 -1 -66577 0
;
#X obj 117 345 cnv 3 3 35 empty empty empty 20 12 0 14 -1 -66577 0
;
#X obj 278 381 cnv 3 10 3 empty empty empty 20 12 0 14 -1 -66577 0
;
#X obj 297 381 cnv 3 10 3 empty empty empty 20 12 0 14 -1 -66577 0
;
#X obj 277 341 cnv 3 11 3 empty empty empty 20 12 0 14 -1 -66577 0
;
#X obj 297 341 cnv 3 11 3 empty empty empty 20 12 0 14 -1 -66577 0
;
#X obj 285 345 cnv 3 3 35 empty empty empty 20 12 0 14 -1 -66577 0
;
#X obj 297 345 cnv 3 3 35 empty empty empty 20 12 0 14 -1 -66577 0
;
#X text 179 282 34 > 56;
#X text 179 292 78 > 12;
#X obj 79 131 tgl 19 0 \$0-s-link \$0-r-link LINK -4 -8 0 14 -1 -262144
-1 1 1;
#X obj 52 393 cnv 4 4 4 empty empty empty 20 12 0 14 -1 -66577 0;
#X obj 79 393 cnv 4 4 4 empty empty empty 20 12 0 14 -1 -66577 0;
#X obj 39 393 cnv 4 4 4 empty empty empty 20 12 0 14 -1 -66577 0;
#X obj 92 393 cnv 4 4 4 empty empty empty 20 12 0 14 -1 -66577 0;
#X obj 156 393 cnv 4 4 4 empty empty empty 20 12 0 14 -1 -66577 0;
#X obj 142 393 cnv 4 4 4 empty empty empty 20 12 0 14 -1 -66577 0;
#X obj 169 393 cnv 4 4 4 empty empty empty 20 12 0 14 -1 -66577 0;
#X obj 129 393 cnv 4 4 4 empty empty empty 20 12 0 14 -1 -66577 0;
#X obj 182 393 cnv 4 4 4 empty empty empty 20 12 0 14 -1 -66577 0;
#X obj 246 393 cnv 4 4 4 empty empty empty 20 12 0 14 -1 -66577 0;
#X obj 232 393 cnv 4 4 4 empty empty empty 20 12 0 14 -1 -66577 0;
#X obj 259 393 cnv 4 4 4 empty empty empty 20 12 0 14 -1 -66577 0;
#X obj 219 393 cnv 4 4 4 empty empty empty 20 12 0 14 -1 -66577 0;
#X obj 272 393 cnv 4 4 4 empty empty empty 20 12 0 14 -1 -66577 0;
#X obj 336 393 cnv 4 4 4 empty empty empty 20 12 0 14 -1 -66577 0;
#X obj 322 393 cnv 4 4 4 empty empty empty 20 12 0 14 -1 -66577 0;
#X obj 349 393 cnv 4 4 4 empty empty empty 20 12 0 14 -1 -66577 0;
#X obj 309 393 cnv 4 4 4 empty empty empty 20 12 0 14 -1 -66577 0;
#X obj 362 393 cnv 4 4 4 empty empty empty 20 12 0 14 -1 -66577 0;
#X obj 66 433 cnv 4 4 4 empty empty empty 20 12 0 14 -1 -66577 0;
#X obj 52 433 cnv 4 4 4 empty empty empty 20 12 0 14 -1 -66577 0;
#X obj 79 433 cnv 4 4 4 empty empty empty 20 12 0 14 -1 -66577 0;
#X obj 39 433 cnv 4 4 4 empty empty empty 20 12 0 14 -1 -66577 0;
#X obj 92 433 cnv 4 4 4 empty empty empty 20 12 0 14 -1 -66577 0;
#X obj 156 433 cnv 4 4 4 empty empty empty 20 12 0 14 -1 -66577 0;
#X obj 142 433 cnv 4 4 4 empty empty empty 20 12 0 14 -1 -66577 0;
#X obj 169 433 cnv 4 4 4 empty empty empty 20 12 0 14 -1 -66577 0;
#X obj 129 433 cnv 4 4 4 empty empty empty 20 12 0 14 -1 -66577 0;
#X obj 182 433 cnv 4 4 4 empty empty empty 20 12 0 14 -1 -66577 0;
#X obj 246 433 cnv 4 4 4 empty empty empty 20 12 0 14 -1 -66577 0;
#X obj 232 433 cnv 4 4 4 empty empty empty 20 12 0 14 -1 -66577 0;
#X obj 259 433 cnv 4 4 4 empty empty empty 20 12 0 14 -1 -66577 0;
#X obj 219 433 cnv 4 4 4 empty empty empty 20 12 0 14 -1 -66577 0;
#X obj 272 433 cnv 4 4 4 empty empty empty 20 12 0 14 -1 -66577 0;
#X obj 336 433 cnv 4 4 4 empty empty empty 20 12 0 14 -1 -66577 0;
#X obj 322 433 cnv 4 4 4 empty empty empty 20 12 0 14 -1 -66577 0;
#X obj 349 433 cnv 4 4 4 empty empty empty 20 12 0 14 -1 -66577 0;
#X obj 309 433 cnv 4 4 4 empty empty empty 20 12 0 14 -1 -66577 0;
#X obj 362 433 cnv 4 4 4 empty empty empty 20 12 0 14 -1 -66577 0;
#X obj 269 309 cnv 4 4 4 empty empty empty 20 12 0 14 -1 -66577 0;
#X obj 301 309 cnv 4 4 4 empty empty empty 20 12 0 14 -1 -66577 0;
#X obj 332 309 cnv 4 4 4 empty empty empty 20 12 0 14 -1 -66577 0;
#X obj 364 309 cnv 4 4 4 empty empty empty 20 12 0 14 -1 -66577 0;
#X obj 237 309 cnv 4 4 4 empty empty empty 20 12 0 14 -1 -66577 0;
#X obj 69 309 cnv 4 4 4 empty empty empty 20 12 0 14 -1 -66577 0;
#X obj 101 309 cnv 4 4 4 empty empty empty 20 12 0 14 -1 -66577 0;
#X obj 132 309 cnv 4 4 4 empty empty empty 20 12 0 14 -1 -66577 0;
#X obj 164 309 cnv 4 4 4 empty empty empty 20 12 0 14 -1 -66577 0;
#X obj 37 309 cnv 4 4 4 empty empty empty 20 12 0 14 -1 -66577 0;
#X obj 269 266 cnv 4 4 4 empty empty empty 20 12 0 14 -1 -66577 0;
#X obj 301 266 cnv 4 4 4 empty empty empty 20 12 0 14 -1 -66577 0;
#X obj 332 266 cnv 4 4 4 empty empty empty 20 12 0 14 -1 -66577 0;
#X obj 364 266 cnv 4 4 4 empty empty empty 20 12 0 14 -1 -66577 0;
#X obj 237 266 cnv 4 4 4 empty empty empty 20 12 0 14 -1 -66577 0;
#X obj 69 266 cnv 4 4 4 empty empty empty 20 12 0 14 -1 -66577 0;
#X obj 101 266 cnv 4 4 4 empty empty empty 20 12 0 14 -1 -66577 0;
#X obj 132 266 cnv 4 4 4 empty empty empty 20 12 0 14 -1 -66577 0;
#X obj 164 266 cnv 4 4 4 empty empty empty 20 12 0 14 -1 -66577 0;
#X obj 37 266 cnv 4 4 4 empty empty empty 20 12 0 14 -1 -66577 0;
#X obj 167 131 cnv 3 3 24 empty empty empty 20 12 0 14 -1 -66577 0
;
#X obj 159 155 cnv 3 11 3 empty empty empty 20 12 0 14 -1 -66577 0
;
#X obj 188 147 hsl 95 19 0 127 0 0 \$0-s-del-mix \$0-r-del-mix MIX
35 -7 0 14 -1 -262144 -1 4219 1;
#X obj 188 111 hsl 95 19 0 127 0 0 \$0-s-feedback \$0-r-feedback FEEDBACK
16 -7 0 14 -1 -262144 -1 4811 1;
#X obj 29 796 text define -k \$0-tune;
#A set -16 93 \; -16 93 \; 7 109 \; 9 107 \; 20 116.54 \; 20 116.54
\; 33 126.24 \; 33 131.22 \;;
#X obj 29 826 loadbang;
#X obj 29 847 t b b;
#X obj 29 889 realtime;
#X obj 29 910 * 1000;
#X obj 29 931 i;
#X obj 29 952 s \$0-seed;
#X obj 74 868 del 200;
#X obj 405 511 lira.voice \$0 1 2;
#N canvas 916 300 372 653 master_output 0;
#X obj 275 467 r \$0-s-vol;
#X obj 275 488 / 127;
#X obj 275 572 line~;
#X obj 67 588 *~;
#X obj 12 176 inlet~;
#X obj 112 11 r \$0-s-drv;
#X obj 275 509 pow 2;
#X obj 67 609 outlet~;
#X obj 112 32 / 127;
#X obj 112 116 pow;
#X obj 112 158 + 100;
#X obj 112 179 dbtorms;
#X msg 112 200 \$1 23.22;
#X msg 275 551 \$1 23.22;
#X obj 112 221 line~;
#X obj 97 242 *~;
#X obj 97 284 ma.tanh~;
#X obj 207 380 r \$0-s-dst-mix;
#X obj 207 401 / 127;
#X msg 207 422 \$1 23.22;
#X obj 207 443 line~;
#X obj 82 469 *~;
#X obj 27 438 sig~ 1;
#X obj 27 459 -~;
#X obj 12 480 *~;
#X obj 67 506 +~;
#X obj 97 368 hip~ 10;
#X obj 112 74 + 1;
#X obj 97 347 +~;
#X obj 112 326 /~ 4;
#X obj 112 305 pow~ 31;
#X obj 97 263 hip~ 20;
#X obj 31 384 *~ 0.1;
#X obj 82 415 +~;
#X obj 67 527 ma.tanh~;
#X obj 87 569 s~ \$0-total-feedback;
#X msg 112 94 3 \$1;
#X obj 112 53 * 2;
#X obj 112 137 + 3;
#X obj 275 530 * 1;
#X obj 153 352 sig~ 1;
#X obj 153 373 /~;
#X obj 97 389 *~;
#X obj 168 331 clip~ 1 4;
#X obj 87 548 hip~ 3;
#X connect 0 0 1 0;
#X connect 1 0 6 0;
#X connect 2 0 3 1;
#X connect 3 0 7 0;
#X connect 4 0 24 0;
#X connect 4 0 15 0;
#X connect 4 0 32 0;
#X connect 5 0 8 0;
#X connect 6 0 39 0;
#X connect 8 0 37 0;
#X connect 9 0 38 0;
#X connect 10 0 11 0;
#X connect 11 0 12 0;
#X connect 12 0 14 0;
#X connect 13 0 2 0;
#X connect 14 0 15 1;
#X connect 14 0 43 0;
#X connect 15 0 31 0;
#X connect 16 0 28 0;
#X connect 16 0 30 0;
#X connect 17 0 18 0;
#X connect 18 0 19 0;
#X connect 19 0 20 0;
#X connect 20 0 21 1;
#X connect 20 0 23 1;
#X connect 21 0 25 1;
#X connect 22 0 23 0;
#X connect 23 0 24 1;
#X connect 24 0 25 0;
#X connect 25 0 34 0;
#X connect 26 0 42 0;
#X connect 27 0 36 0;
#X connect 28 0 26 0;
#X connect 29 0 28 1;
#X connect 30 0 29 0;
#X connect 31 0 16 0;
#X connect 32 0 33 0;
#X connect 33 0 21 0;
#X connect 34 0 3 0;
#X connect 34 0 44 0;
#X connect 36 0 9 0;
#X connect 37 0 27 0;
#X connect 38 0 10 0;
#X connect 39 0 13 0;
#X connect 40 0 41 0;
#X connect 41 0 42 1;
#X connect 42 0 33 1;
#X connect 43 0 41 1;
#X connect 44 0 35 0;
#X restore 405 661 pd master_output;
#X obj 435 563 lira.voice \$0 3 4;
#X obj 595 511 lira.voice \$0 5 6;
#X obj 625 563 lira.voice \$0 7 8;
#X obj 405 407 prm.source \$0 1 2 3 4 7 8;
#X obj 415 537 prm.source \$0 3 4 1 2 1 2;
#X obj 595 407 prm.source \$0 5 6 7 8 3 4;
#X obj 605 537 prm.source \$0 7 8 5 6 5 6;
#N canvas 779 206 438 510 hyper-lfo 0;
#X obj 12 179 phasor~;
#X obj 292 418 phasor~;
#X obj 197 339 *~;
#X obj 197 402 *~;
#X obj 212 381 r \$0-s-link;
#N canvas 654 271 320 351 triangle-lfo 0;
#X obj 12 211 /~ 2;
#X obj 12 12 inlet~;
#X obj 33 38 loadbang;
#X msg 33 59 1;
#X obj 33 80 -~;
#X obj 12 101 min~;
#X obj 12 122 *~ 4;
#X obj 12 143 -~ 1;
#X obj 179 38 inlet~;
#X obj 200 64 loadbang;
#X msg 200 85 1;
#X obj 200 106 -~;
#X obj 179 127 min~;
#X obj 179 148 *~ 4;
#X obj 179 169 -~ 1;
#X obj 12 232 s~ \$0-del-tri 0;
#X connect 0 0 15 0;
#X connect 1 0 4 1;
#X connect 1 0 5 0;
#X connect 2 0 3 0;
#X connect 3 0 4 0;
#X connect 4 0 5 1;
#X connect 5 0 6 0;
#X connect 6 0 7 0;
#X connect 7 0 0 0;
#X connect 8 0 11 1;
#X connect 8 0 12 0;
#X connect 9 0 10 0;
#X connect 10 0 11 0;
#X connect 11 0 12 1;
#X connect 12 0 13 0;
#X connect 13 0 14 0;
#X connect 14 0 0 0;
#X restore 12 474 pd triangle-lfo;
#N canvas 14 312 663 346 square-lfo 0;
#X obj 179 74 *~ 1000;
#X obj 179 95 clip~ -1 1;
#X obj 12 111 *~;
#X obj 12 174 *~;
#X obj 27 132 r \$0-s-andor;
#X obj 27 153 == 0;
#X obj 179 179 *~;
#X obj 194 158 r \$0-s-andor;
#X obj 211 211 snapshot~;
#X obj 179 127 /~ 2;
#X obj 211 232 change;
#X obj 211 274 s \$0-r-led;
#X obj 12 195 +~;
#X obj 12 12 inlet~;
#X obj 179 32 inlet~;
#X obj 12 221 s~ \$0-sqr-lfo 0;
#X obj 280 143 s~ \$0-del-sqr 0;
#X obj 211 191 bang~;
#X obj 211 253 sel 1 -1;
#X obj 179 53 cos~;
#X connect 0 0 1 0;
#X connect 1 0 2 1;
#X connect 1 0 9 0;
#X connect 2 0 3 0;
#X connect 3 0 12 0;
#X connect 4 0 5 0;
#X connect 5 0 3 1;
#X connect 6 0 12 1;
#X connect 7 0 6 1;
#X connect 8 0 10 0;
#X connect 9 0 6 0;
#X connect 9 0 16 0;
#X connect 10 0 18 0;
#X connect 12 0 8 0;
#X connect 12 0 15 0;
#X connect 13 0 2 0;
#X connect 13 0 9 0;
#X connect 14 0 19 0;
#X connect 17 0 8 0;
#X connect 18 0 11 0;
#X connect 18 1 11 0;
#X connect 19 0 0 0;
#X restore 72 434 pd square-lfo;
#X obj 72 226 *~ 1000;
#X obj 72 247 clip~ -1 1;
#X obj 12 12 r \$0-s-f-a;
#X obj 12 33 / 127;
#X obj 12 95 - 75;
#X obj 12 116 mtof;
#X obj 12 158 line~;
#X obj 292 198 / 127;
#X obj 292 260 - 75;
#X obj 292 281 mtof;
#X obj 292 323 line~;
#X obj 292 177 r \$0-s-f-b;
#X obj 292 219 pow 2;
#X obj 292 239 * 127;
#X obj 12 54 pow 2;
#X obj 12 74 * 127;
#X obj 197 360 /~ 2;
#X obj 72 205 cos~;
#X msg 12 137 \$1 23.22;
#X msg 292 302 \$1 23.22;
#X connect 0 0 5 0;
#X connect 0 0 24 0;
#X connect 1 0 5 1;
#X connect 1 0 6 1;
#X connect 2 0 23 0;
#X connect 3 0 1 0;
#X connect 4 0 3 1;
#X connect 7 0 8 0;
#X connect 8 0 2 0;
#X connect 8 0 6 0;
#X connect 9 0 10 0;
#X connect 10 0 21 0;
#X connect 11 0 12 0;
#X connect 12 0 25 0;
#X connect 13 0 0 0;
#X connect 14 0 19 0;
#X connect 15 0 16 0;
#X connect 16 0 26 0;
#X connect 17 0 2 1;
#X connect 17 0 1 0;
#X connect 18 0 14 0;
#X connect 19 0 20 0;
#X connect 20 0 15 0;
#X connect 21 0 22 0;
#X connect 22 0 11 0;
#X connect 23 0 3 0;
#X connect 24 0 7 0;
#X connect 25 0 13 0;
#X connect 26 0 17 0;
#X restore 405 386 pd hyper-lfo;
#X obj 454 433 prm.pitch \$0 1 2 3 4;
#X obj 635 430 prm.pitch \$0 5 6 7 8;
#N canvas 383 285 1102 773 delay 0;
#X obj 12 492 inlet~;
#X obj 12 739 outlet~;
#X obj 177 105 / 127;
#X msg 177 147 2 \$1;
#X obj 177 168 pow;
#X obj 177 189 * 1.45125;
#X obj 177 231 line~;
#X msg 177 210 \$1 23.22;
#X obj 162 534 +~;
#X obj 177 85 r \$0-s-time-1;
#X obj 177 126 * 12;
#X obj 162 555 delwrite~ \$0-mod-delay-1 5944;
#X obj 177 273 vd~ \$0-mod-delay-1;
#X obj 192 336 loadbang;
#X obj 177 404 compressor~;
#X obj 192 378 unpack f f f f;
#X obj 202 425 loadbang;
#X obj 177 488 expander~;
#X obj 202 467 unpack f f;
#X obj 92 518 +~;
#X obj 107 476 noise~;
#X obj 290 330 r \$0-s-feedback;
#X obj 290 351 / 127;
#X obj 290 372 t f f;
#X obj 290 393 * 2;
#X msg 290 414 2 \$1;
#X obj 290 435 pow;
#X obj 290 456 *;
#X msg 290 477 \$1 23.22;
#X obj 290 498 line~;
#X obj 177 514 *~;
#X obj 177 294 hip~ 1;
#X obj 177 315 lop~ 4000;
#X obj 269 2 vd~ \$0-mod-delay-1;
#X obj 337 100 r \$0-s-lfo-wav;
#X obj 322 142 *~;
#X obj 337 121 == 0;
#X obj 387 141 r \$0-s-lfo-wav;
#X obj 372 162 *~;
#X obj 269 95 *~;
#X obj 322 199 *~;
#X obj 402 162 r \$0-s-del-mod;
#X obj 402 183 == 2;
#X obj 284 53 r \$0-s-del-mod;
#X obj 284 74 == 0;
#X obj 269 215 +~;
#X obj 269 236 *~;
#X obj 500 115 r \$0-s-mod-1;
#X obj 500 136 / 127;
#X obj 500 157 pow 2;
#X obj 500 178 * 10;
#X msg 500 199 \$1 23.22;
#X obj 500 220 line~;
#X obj 177 252 +~;
#X obj 794 115 / 127;
#X msg 794 157 2 \$1;
#X obj 794 178 pow;
#X obj 794 199 * 1.45125;
#X obj 794 241 line~;
#X msg 794 220 \$1 23.22;
#X obj 541 534 +~;
#X obj 794 136 * 12;
#X obj 586 341 loadbang;
#X obj 571 409 compressor~;
#X obj 586 383 unpack f f f f;
#X obj 596 430 loadbang;
#X obj 571 493 expander~;
#X obj 596 472 unpack f f;
#X obj 556 514 *~;
#X obj 571 299 hip~ 1;
#X obj 571 320 lop~ 4000;
#X obj 586 194 *~;
#X obj 601 152 r \$0-s-del-mod;
#X obj 601 173 == 0;
#X obj 571 215 +~;
#X obj 571 236 *~;
#X obj 708 136 / 127;
#X obj 708 157 pow 2;
#X obj 708 178 * 10;
#X msg 708 199 \$1 23.22;
#X obj 708 220 line~;
#X obj 571 257 +~;
#X obj 586 80 vd~ \$0-mod-delay-2;
#X obj 541 555 delwrite~ \$0-mod-delay-2 5944;
#X obj 571 278 vd~ \$0-mod-delay-2;
#X obj 708 115 r \$0-s-mod-2;
#X obj 794 95 r \$0-s-time-2;
#X obj 400 563 +~;
#X obj 27 655 sig~ 1;
#X obj 27 676 -~;
#X obj 12 697 *~;
#X obj 77 576 r \$0-s-del-mix;
#X obj 77 597 / 127;
#X msg 77 639 \$1 23.22;
#X obj 77 660 line~;
#X obj 385 676 *~;
#X obj 12 718 +~;
#X obj 586 101 /~ 2;
#X obj 269 23 /~ 2;
#X obj 586 122 lop~ 689;
#X obj 269 116 lop~ 689;
#X obj 400 584 /~ 2;
#X obj 322 79 r~ \$0-del-tri;
#X obj 372 120 r~ \$0-del-sqr;
#X obj 107 497 *~ 0.001;
#X msg 202 445 -60 5;
#X msg 596 450 -60 5;
#X obj 322 178 +~;
#X obj 400 645 ma.tanh~;
#X msg 192 357 2.5 2.5 -12 5;
#X msg 586 362 2.5 2.5 -12 5;
#X obj 438 568 sig~ 1;
#X obj 438 589 /~;
#X obj 400 605 *~;
#X obj 453 544 max~ 1.5;
#X connect 0 0 19 0;
#X connect 0 0 90 0;
#X connect 2 0 10 0;
#X connect 3 0 4 0;
#X connect 4 0 5 0;
#X connect 5 0 7 0;
#X connect 6 0 53 0;
#X connect 7 0 6 0;
#X connect 8 0 11 0;
#X connect 9 0 2 0;
#X connect 10 0 3 0;
#X connect 12 0 31 0;
#X connect 13 0 109 0;
#X connect 14 0 17 0;
#X connect 15 0 14 1;
#X connect 15 1 14 2;
#X connect 15 2 14 3;
#X connect 15 3 14 4;
#X connect 16 0 105 0;
#X connect 17 0 30 0;
#X connect 17 0 87 0;
#X connect 18 0 17 1;
#X connect 18 1 17 2;
#X connect 19 0 8 0;
#X connect 19 0 60 0;
#X connect 20 0 104 0;
#X connect 21 0 22 0;
#X connect 22 0 23 0;
#X connect 23 0 24 0;
#X connect 23 1 27 1;
#X connect 24 0 25 0;
#X connect 25 0 26 0;
#X connect 26 0 27 0;
#X connect 27 0 28 0;
#X connect 28 0 29 0;
#X connect 29 0 30 1;
#X connect 29 0 68 0;
#X connect 29 0 114 0;
#X connect 30 0 8 1;
#X connect 31 0 32 0;
#X connect 32 0 14 0;
#X connect 33 0 98 0;
#X connect 34 0 36 0;
#X connect 35 0 107 0;
#X connect 36 0 35 1;
#X connect 37 0 38 1;
#X connect 38 0 107 1;
#X connect 39 0 100 0;
#X connect 40 0 45 1;
#X connect 40 0 74 0;
#X connect 41 0 42 0;
#X connect 42 0 40 1;
#X connect 43 0 44 0;
#X connect 44 0 39 1;
#X connect 45 0 46 0;
#X connect 46 0 53 1;
#X connect 47 0 48 0;
#X connect 48 0 49 0;
#X connect 49 0 50 0;
#X connect 50 0 51 0;
#X connect 51 0 52 0;
#X connect 52 0 46 1;
#X connect 53 0 12 0;
#X connect 54 0 61 0;
#X connect 55 0 56 0;
#X connect 56 0 57 0;
#X connect 57 0 59 0;
#X connect 58 0 81 1;
#X connect 59 0 58 0;
#X connect 60 0 83 0;
#X connect 61 0 55 0;
#X connect 62 0 110 0;
#X connect 63 0 66 0;
#X connect 64 0 63 1;
#X connect 64 1 63 2;
#X connect 64 2 63 3;
#X connect 64 3 63 4;
#X connect 65 0 106 0;
#X connect 66 0 68 1;
#X connect 66 0 87 1;
#X connect 67 0 66 1;
#X connect 67 1 66 2;
#X connect 68 0 60 1;
#X connect 69 0 70 0;
#X connect 70 0 63 0;
#X connect 71 0 74 1;
#X connect 72 0 73 0;
#X connect 73 0 71 1;
#X connect 74 0 75 0;
#X connect 75 0 81 0;
#X connect 76 0 77 0;
#X connect 77 0 78 0;
#X connect 78 0 79 0;
#X connect 79 0 80 0;
#X connect 80 0 75 1;
#X connect 81 0 84 0;
#X connect 82 0 97 0;
#X connect 84 0 69 0;
#X connect 85 0 76 0;
#X connect 86 0 54 0;
#X connect 87 0 101 0;
#X connect 88 0 89 0;
#X connect 89 0 90 1;
#X connect 90 0 96 0;
#X connect 91 0 92 0;
#X connect 92 0 93 0;
#X connect 93 0 94 0;
#X connect 94 0 95 0;
#X connect 94 0 89 1;
#X connect 95 0 96 1;
#X connect 96 0 1 0;
#X connect 97 0 99 0;
#X connect 98 0 39 0;
#X connect 99 0 71 0;
#X connect 100 0 45 0;
#X connect 101 0 113 0;
#X connect 102 0 35 0;
#X connect 103 0 38 0;
#X connect 104 0 19 1;
#X connect 105 0 18 0;
#X connect 106 0 67 0;
#X connect 107 0 40 0;
#X connect 108 0 95 1;
#X connect 109 0 15 0;
#X connect 110 0 64 0;
#X connect 111 0 112 0;
#X connect 112 0 113 1;
#X connect 113 0 108 0;
#X connect 114 0 112 1;
#X restore 405 640 pd delay;
#X obj 139 840 r \$0-s-dsp;
#X msg 139 861 dsp \$1;
#X obj 139 882 s pd;
#X obj 139 952 print -n;
#X obj 139 910 loadbang;
#X obj 209 840 loadbang;
#X msg 209 861 1;
#X obj 209 882 s \$0-r-dsp;
#N canvas 49 515 835 495 labels 0;
#X obj 12 38 r \$0-s-source-12;
#X obj 12 206 s \$0-r-source-12;
#X obj 12 59 text get \$0-source-12-label;
#X obj 12 12 text define -k \$0-source-12-label;
#A set 1 34 20 \; 2 OFF 17 \; 2 LFO-CV 4 \;;
#X msg 12 185 label \$1;
#X obj 12 164 makefilename %s;
#X obj 12 122 route 1 2;
#X obj 37 143 symbol;
#X msg 12 101 \$1 \$2;
#X obj 12 80 t a a;
#X obj 80 117 s \$0-r-source-12;
#X msg 232 185 label \$1;
#X obj 232 164 makefilename %s;
#X obj 232 122 route 1 2;
#X obj 257 143 symbol;
#X msg 232 101 \$1 \$2;
#X obj 232 80 t a a;
#X msg 12 415 label \$1;
#X obj 12 394 makefilename %s;
#X obj 12 352 route 1 2;
#X obj 37 373 symbol;
#X msg 12 331 \$1 \$2;
#X obj 12 310 t a a;
#X msg 232 415 label \$1;
#X obj 232 394 makefilename %s;
#X obj 232 352 route 1 2;
#X obj 257 373 symbol;
#X msg 232 331 \$1 \$2;
#X obj 232 310 t a a;
#X obj 232 206 s \$0-r-source-34;
#X obj 232 38 r \$0-s-source-34;
#X obj 12 436 s \$0-r-source-56;
#X obj 232 436 s \$0-r-source-78;
#X obj 232 268 r \$0-s-source-78;
#X obj 12 289 text get \$0-source-56-label;
#X obj 232 289 text get \$0-source-78-label;
#X obj 232 242 text define -k \$0-source-78-label;
#A set 1 56 20 \; 2 OFF 17 \; 2 LFO-CV 4 \;;
#X obj 12 242 text define -k \$0-source-56-label;
#A set 1 78 20 \; 2 OFF 17 \; 2 LFO-CV 4 \;;
#X obj 12 268 r \$0-s-source-56;
#X obj 232 12 text define -k \$0-source-34-label;
#A set 1 12 20 \; 2 OFF 17 \; 2 LFO-CV 4 \;;
#X obj 232 59 text get \$0-source-34-label;
#X obj 300 117 s \$0-r-source-34;
#X obj 80 347 s \$0-r-source-56;
#X obj 300 347 s \$0-r-source-78;
#X obj 462 80 t a a;
#X obj 462 12 text define -k \$0-andor-label;
#A set AND -2 \; OR 2 \;;
#X obj 462 59 text get \$0-andor-label;
#X obj 462 38 r \$0-s-andor;
#X obj 462 122 symbol;
#X obj 462 164 s \$0-r-andor;
#X msg 462 143 label \$1;
#X obj 530 117 s \$0-r-andor;
#X msg 462 101 \$1;
#X obj 652 101 symbol;
#X msg 652 122 label \$1;
#X msg 652 80 \$1;
#X obj 652 38 r \$0-s-del-mod;
#X obj 652 59 text get \$0-del-mod;
#X obj 652 12 text define -k \$0-del-mod;
#A set SELF \; OFF \; LFO \;;
#X obj 652 143 s \$0-r-del-mod;
#X obj 652 281 symbol;
#X msg 652 302 label \$1;
#X msg 652 260 \$1;
#X obj 652 239 text get \$0-lfo-wav;
#X obj 652 218 r \$0-s-lfo-wav;
#X obj 652 192 text define -k \$0-lfo-wav;
#A set TRI \; SQR \;;
#X obj 652 323 s \$0-r-lfo-wav;
#X msg 530 96 label_pos \$2 -7;
#X msg 80 326 label_pos \$3 -7;
#X msg 300 326 label_pos \$3 -7;
#X msg 300 96 label_pos \$3 -7;
#X msg 80 96 label_pos \$3 -7;
#X connect 0 0 2 0;
#X connect 2 0 9 0;
#X connect 4 0 1 0;
#X connect 5 0 4 0;
#X connect 6 0 5 0;
#X connect 6 1 7 0;
#X connect 7 0 4 0;
#X connect 8 0 6 0;
#X connect 9 0 8 0;
#X connect 9 1 71 0;
#X connect 11 0 29 0;
#X connect 12 0 11 0;
#X connect 13 0 12 0;
#X connect 13 1 14 0;
#X connect 14 0 11 0;
#X connect 15 0 13 0;
#X connect 16 0 15 0;
#X connect 16 1 70 0;
#X connect 17 0 31 0;
#X connect 18 0 17 0;
#X connect 19 0 18 0;
#X connect 19 1 20 0;
#X connect 20 0 17 0;
#X connect 21 0 19 0;
#X connect 22 0 21 0;
#X connect 22 1 68 0;
#X connect 23 0 32 0;
#X connect 24 0 23 0;
#X connect 25 0 24 0;
#X connect 25 1 26 0;
#X connect 26 0 23 0;
#X connect 27 0 25 0;
#X connect 28 0 27 0;
#X connect 28 1 69 0;
#X connect 30 0 40 0;
#X connect 33 0 35 0;
#X connect 34 0 22 0;
#X connect 35 0 28 0;
#X connect 38 0 34 0;
#X connect 40 0 16 0;
#X connect 44 0 52 0;
#X connect 44 1 67 0;
#X connect 46 0 44 0;
#X connect 47 0 46 0;
#X connect 48 0 50 0;
#X connect 50 0 49 0;
#X connect 52 0 48 0;
#X connect 53 0 54 0;
#X connect 54 0 59 0;
#X connect 55 0 53 0;
#X connect 56 0 57 0;
#X connect 57 0 55 0;
#X connect 60 0 61 0;
#X connect 61 0 66 0;
#X connect 62 0 60 0;
#X connect 63 0 62 0;
#X connect 64 0 63 0;
#X connect 67 0 51 0;
#X connect 68 0 42 0;
#X connect 69 0 43 0;
#X connect 70 0 41 0;
#X connect 71 0 10 0;
#X restore 29 770 pd labels;
#X obj 567 696 notein;
#X obj 567 717 pack f f;
#X obj 567 781 clone -s 1 note 8 \$0;
#X obj 567 738 list prepend all;
#X obj 567 759 list trim;
#X obj 405 682 outlet~;
#X obj 405 297 cputime;
#X obj 405 213 loadbang;
#X obj 405 255 metro 1000;
#X obj 405 276 t b b;
#X obj 405 339 * 0.1;
#X obj 405 318 int;
#X obj 405 360 s \$0-r-cpu;
#X msg 139 931 LIRA-8 by Mike Moreno DSP 2020;
#X msg 405 234 1;
#N canvas 1027 619 248 280 prm.hold 0;
#X obj 12 96 line~;
#X obj 12 117 outlet~;
#X obj 12 12 r \$0-s-hold-1234;
#X msg 12 75 \$1 23.22;
#X obj 12 33 / 127;
#X obj 12 54 pow 2;
#X connect 0 0 1 0;
#X connect 2 0 4 0;
#X connect 3 0 0 0;
#X connect 4 0 5 0;
#X connect 5 0 3 0;
#X restore 504 469 pd prm.hold;
#N canvas 1027 619 248 280 prm.hold 0;
#X obj 12 96 line~;
#X obj 12 117 outlet~;
#X obj 12 12 r \$0-s-hold-5678;
#X msg 12 75 \$1 23.22;
#X obj 12 33 / 127;
#X obj 12 54 pow 2;
#X connect 0 0 1 0;
#X connect 2 0 4 0;
#X connect 3 0 0 0;
#X connect 4 0 5 0;
#X connect 5 0 3 0;
#X restore 694 469 pd prm.hold;
#X obj 405 620 /~ 6;
#X connect 59 0 60 0;
#X connect 60 0 61 0;
#X connect 61 0 67 0;
#X connect 62 0 61 1;
#X connect 63 0 66 0;
#X connect 63 1 65 0;
#X connect 64 0 78 0;
#X connect 65 0 64 1;
#X connect 66 0 79 0;
#X connect 67 0 62 0;
#X connect 67 0 63 0;
#X connect 79 0 64 0;
#X connect 178 0 179 0;
#X connect 179 0 180 0;
#X connect 179 1 184 0;
#X connect 180 0 181 0;
#X connect 181 0 182 0;
#X connect 182 0 183 0;
#X connect 184 0 180 1;
#X connect 185 0 224 0;
#X connect 186 0 212 0;
#X connect 187 0 224 0;
#X connect 188 0 224 0;
#X connect 189 0 224 0;
#X connect 190 0 185 0;
#X connect 191 0 187 0;
#X connect 192 0 188 0;
#X connect 193 0 189 0;
#X connect 195 0 187 1;
#X connect 195 0 185 1;
#X connect 196 0 189 1;
#X connect 196 0 188 1;
#X connect 197 0 186 0;
#X connect 198 0 199 0;
#X connect 199 0 200 0;
#X connect 202 0 220 0;
#X connect 203 0 204 0;
#X connect 204 0 205 0;
#X connect 207 0 208 0;
#X connect 207 1 208 1;
#X connect 208 0 210 0;
#X connect 210 0 211 0;
#X connect 211 0 209 0;
#X connect 213 0 218 0;
#X connect 214 0 221 0;
#X connect 215 0 216 0;
#X connect 216 0 213 0;
#X connect 216 1 213 1;
#X connect 217 0 219 0;
#X connect 218 0 217 0;
#X connect 220 0 201 0;
#X connect 221 0 215 0;
#X connect 222 0 187 2;
#X connect 222 0 185 2;
#X connect 223 0 188 2;
#X connect 223 0 189 2;
#X connect 224 0 197 0;
#X coords 0 -1 1 1 385 677 2 10 10;
#X restore 34 32 pd gui;
#X obj 447 190 tgl 19 0 \$0-s-dsp \$0-r-dsp DSP 0 -8 0 12 -262144 -1
-1 1 1;
#X text 440 65 1) USE THE NUMBER KEYS TO PLAY;
#X text 440 85 2) USE THE MOUSE TO MOVE THE PARAMETERS;
#X text 440 105 3) ENJOY!;
#X obj 447 153 nbx 3 16 -1e+37 1e+37 0 0 \$0-s-cpu \$0-r-cpu CPU(%)
0 -8 0 10 -262144 -1 -1 7 256;
#X obj 32 714 dac~ 1 2;
#X msg 431 47 INSTRUCTIONS;
#X text 230 714 LIRA-8 by Mike Moreno DSP 2020;
#X text 272 729 mikemorenodsp@gmail.com;
#X obj 696 180 akai_midimix_lira8;
#N canvas 411 111 1280 961 control 0;
#X obj 1131 825 * 1;
#X obj 186 862 s \$0-r-tune-2;
#X obj 317 865 s \$0-r-tune-3;
#X obj 435 865 s \$0-r-tune-4;
#X obj 952 859 s \$0-r-tune-8;
#X obj 566 861 s \$0-r-tune-5;
#X obj 689 861 s \$0-r-tune-6;
#X obj 811 856 s \$0-r-tune-7;
#X obj 1117 858 s \$0-r-vol;
#X obj 45 677 s \$0-r-sensor-1;
#X obj 179 679 s \$0-r-sensor-2;
#X obj 317 676 s \$0-r-sensor-3;
#X obj 443 675 s \$0-r-sensor-4;
#X obj 561 677 s \$0-r-sensor-5;
#X obj 686 675 s \$0-r-sensor-6;
#X obj 805 676 s \$0-r-sensor-7;
#X obj 937 674 s \$0-r-sensor-8;
#X obj 1116 790 ctlin 62;
#X obj 183 771 ctlin 23;
#X obj 314 773 ctlin 27;
#X obj 433 772 ctlin 31;
#X obj 562 771 ctlin 49;
#X obj 686 766 ctlin 53;
#X obj 807 765 ctlin 57;
#X obj 946 767 ctlin 61;
#X obj 910 139 ctlin 58;
#X obj 911 177 s \$0-r-dst-mix;
#X obj 807 138 ctlin 54;
#X obj 808 181 s \$0-r-drv;
#X obj 560 139 ctlin 46;
#X obj 680 136 ctlin 50;
#X obj 434 138 ctlin 28;
#X obj 324 142 ctlin 24;
#X obj 169 142 ctlin 20;
#X obj 48 141 ctlin 16;
#X obj 169 186 s \$0-r-feedback;
#X obj 48 183 s \$0-r-del-mix;
#X msg 46 237 hyper lfo;
#X obj 47 288 s \$0-r-f-a;
#X obj 46 264 ctlin 17;
#X obj 168 281 s \$0-r-f-b;
#X obj 167 257 ctlin 21;
#X obj 317 280 s \$0-r-hold-1234;
#X obj 316 256 ctlin 25;
#X obj 439 251 ctlin 29;
#X obj 560 252 ctlin 47;
#X obj 687 273 s \$0-r-pitch-5678;
#X obj 686 249 ctlin 51;
#X obj 48 358 s \$0-r-mod-12;
#X obj 171 355 s \$0-r-sharp-12;
#X obj 319 356 s \$0-r-mod-34;
#X obj 440 356 s \$0-r-sharp-34;
#X obj 47 334 ctlin 18;
#X obj 170 331 ctlin 22;
#X obj 318 332 ctlin 26;
#X obj 440 328 ctlin 30;
#X obj 560 331 ctlin 48;
#X obj 683 329 ctlin 52;
#X obj 561 355 s \$0-r-mod-56;
#X obj 684 353 s \$0-r-sharp-56;
#X obj 815 353 s \$0-r-mod-78;
#X obj 935 354 s \$0-r-sharp-78;
#X obj 818 325 ctlin 56;
#X obj 933 327 ctlin 60;
#X obj 53 516 s \$0-r-sensor-1;
#X obj 46 540 s \$0-r-sensor-2;
#X obj 178 528 s \$0-r-fast-12;
#X obj 45 621 push_switch 3;
#X obj 179 624 push_switch 6;
#X obj 317 623 push_switch 9;
#X obj 443 624 push_switch 12;
#X obj 561 626 push_switch 15;
#X obj 686 621 push_switch 18;
#X obj 805 623 push_switch 21;
#X obj 934 630 push_switch 24;
#X obj 178 476 toggle_switch 4;
#X obj 442 471 toggle_switch 10;
#X obj 442 528 s \$0-r-fast-34;
#X obj 940 525 s \$0-r-fast-78;
#X obj 694 527 s \$0-r-fast-56;
#X obj 45 477 toggle_switch 1;
#X obj 316 509 s \$0-r-sensor-3;
#X obj 309 533 s \$0-r-sensor-4;
#X obj 308 470 toggle_switch 7;
#X obj 697 470 toggle_switch 16;
#X obj 565 469 toggle_switch 13;
#X obj 573 508 s \$0-r-sensor-5;
#X obj 566 532 s \$0-r-sensor-6;
#X obj 813 467 toggle_switch 19;
#X obj 940 469 toggle_switch 22;
#X obj 821 506 s \$0-r-sensor-7;
#X obj 814 530 s \$0-r-sensor-8;
#X obj 1134 240 toggle_switch 25;
#X obj 1088 338 toggle_switch 26;
#X obj 1101 468 toggle_switch 27;
#X obj 1088 363 s \$0-r-vibrato;
#X obj 1134 276 s \$0-r-total-fb;
#X obj 1101 505 s \$0-r-switch;
#X obj 805 218 ctlin 55;
#X obj 936 219 ctlin 59;
#X text 26 20 Midi CC control for parameters (made for Akai MidiMix
\, adapt it for your own device);
#X obj 927 279 s \$0-r-del-mod;
#X obj 816 276 s \$0-r-andor;
#N canvas 33 137 497 395 select_2_switch 0;
#X obj 54 52 inlet;
#X obj 52 282 outlet;
#X floatatom 52 250 5 0 0 0 - - -;
#X obj 51 162 < 20;
#X connect 0 0 3 0;
#X connect 2 0 1 0;
#X connect 3 0 2 0;
#X restore 809 247 pd select_2_switch;
#N canvas 33 137 749 497 select_3_switch 0;
#X obj 54 52 inlet;
#X obj 51 353 outlet;
#X obj 51 162 < 20;
#X obj 112 164 > 19;
#X floatatom 115 219 5 0 0 0 - - -;
#X msg 109 283 1;
#X obj 159 190 &&;
#X obj 167 161 < 40;
#X floatatom 231 220 5 0 0 0 - - -;
#X msg 231 285 2;
#X msg 42 281 0;
#X obj 234 166 > 39;
#X floatatom 46 215 5 0 0 0 - - -;
#X obj 228 252 select 1;
#X obj 114 251 select 1;
#X obj 36 254 select 1;
#X floatatom 416 223 5 0 0 0 - - -;
#X obj 413 255 select 1;
#X obj 266 196 &&;
#X obj 294 165 < 60;
#X obj 398 385 s \$0-r-lfo-wav;
#X obj 431 181 &&;
#X obj 399 151 > 59;
#X obj 459 150 < 70;
#X msg 416 288 0;
#X floatatom 569 223 5 0 0 0 - - -;
#X obj 566 255 select 1;
#X obj 584 181 &&;
#X msg 569 288 1;
#X obj 552 151 > 69;
#X obj 612 150 < 90;
#X connect 0 0 2 0;
#X connect 0 0 3 0;
#X connect 0 0 7 0;
#X connect 0 0 11 0;
#X connect 0 0 19 0;
#X connect 0 0 22 0;
#X connect 0 0 23 0;
#X connect 0 0 29 0;
#X connect 0 0 30 0;
#X connect 2 0 12 0;
#X connect 3 0 6 0;
#X connect 4 0 14 0;
#X connect 5 0 1 0;
#X connect 6 0 4 0;
#X connect 7 0 6 1;
#X connect 8 0 13 0;
#X connect 9 0 1 0;
#X connect 10 0 1 0;
#X connect 11 0 18 0;
#X connect 12 0 15 0;
#X connect 13 0 9 0;
#X connect 14 0 5 0;
#X connect 15 0 10 0;
#X connect 16 0 17 0;
#X connect 17 0 24 0;
#X connect 18 0 8 0;
#X connect 19 0 18 1;
#X connect 21 0 16 0;
#X connect 22 0 21 0;
#X connect 23 0 21 1;
#X connect 24 0 20 0;
#X connect 25 0 26 0;
#X connect 26 0 28 0;
#X connect 27 0 25 0;
#X connect 28 0 20 0;
#X connect 29 0 27 0;
#X connect 30 0 27 1;
#X restore 936 248 pd select_3_switch;
#X obj 324 184 s \$0-r-mod-1;
#X obj 434 183 s \$0-r-mod-2;
#X obj 560 181 s \$0-r-time-1;
#X obj 678 180 s \$0-r-time-2;
#X obj 438 276 s \$0-r-pitch-1234;
#X obj 561 276 s \$0-r-hold-5678;
#X obj 40 772 ctlin 19;
#X obj 51 863 s \$0-r-tune-1;
#X obj 53 735 r \$0-r-tune-add-1;
#X obj 107 820 +, f 5;
#X obj 124 759 t a f;
#X obj 143 785 bng 15 250 50 0 empty empty empty 17 7 0 10 -262144
-1 -1;
#X obj 229 819 +, f 5;
#X obj 246 758 t a f;
#X obj 265 784 bng 15 250 50 0 empty empty empty 17 7 0 10 -262144
-1 -1;
#X obj 357 817 +, f 5;
#X obj 374 756 t a f;
#X obj 393 782 bng 15 250 50 0 empty empty empty 17 7 0 10 -262144
-1 -1;
#X obj 482 818 +, f 5;
#X obj 499 757 t a f;
#X obj 518 783 bng 15 250 50 0 empty empty empty 17 7 0 10 -262144
-1 -1;
#X obj 610 821 +, f 5;
#X obj 627 760 t a f;
#X obj 646 786 bng 15 250 50 0 empty empty empty 17 7 0 10 -262144
-1 -1;
#X obj 733 823 +, f 5;
#X obj 750 762 t a f;
#X obj 769 788 bng 15 250 50 0 empty empty empty 17 7 0 10 -262144
-1 -1;
#X obj 858 821 +, f 5;
#X obj 875 760 t a f;
#X obj 894 786 bng 15 250 50 0 empty empty empty 17 7 0 10 -262144
-1 -1;
#X obj 995 820 +, f 5;
#X obj 1012 759 t a f;
#X obj 1031 785 bng 15 250 50 0 empty empty empty 17 7 0 10 -262144
-1 -1;
#X obj 175 734 r \$0-r-tune-add-2;
#X obj 303 732 r \$0-r-tune-add-3;
#X obj 428 733 r \$0-r-tune-add-4;
#X obj 556 736 r \$0-r-tune-add-5;
#X obj 804 736 r \$0-r-tune-add-7;
#X obj 679 738 r \$0-r-tune-add-6;
#X obj 941 735 r \$0-r-tune-add-8;
#X connect 0 0 8 0;
#X connect 17 0 0 0;
#X connect 18 0 117 0;
#X connect 19 0 120 0;
#X connect 20 0 123 0;
#X connect 21 0 126 0;
#X connect 22 0 129 0;
#X connect 23 0 132 0;
#X connect 24 0 135 0;
#X connect 25 0 26 0;
#X connect 27 0 28 0;
#X connect 29 0 107 0;
#X connect 30 0 108 0;
#X connect 31 0 106 0;
#X connect 32 0 105 0;
#X connect 33 0 35 0;
#X connect 34 0 36 0;
#X connect 39 0 38 0;
#X connect 41 0 40 0;
#X connect 43 0 42 0;
#X connect 44 0 109 0;
#X connect 45 0 110 0;
#X connect 47 0 46 0;
#X connect 52 0 48 0;
#X connect 53 0 49 0;
#X connect 54 0 50 0;
#X connect 55 0 51 0;
#X connect 56 0 58 0;
#X connect 57 0 59 0;
#X connect 62 0 60 0;
#X connect 63 0 61 0;
#X connect 67 0 9 0;
#X connect 68 0 10 0;
#X connect 69 0 11 0;
#X connect 70 0 12 0;
#X connect 71 0 13 0;
#X connect 72 0 14 0;
#X connect 73 0 15 0;
#X connect 74 0 16 0;
#X connect 75 0 66 0;
#X connect 76 0 77 0;
#X connect 80 0 64 0;
#X connect 80 0 65 0;
#X connect 83 0 81 0;
#X connect 83 0 82 0;
#X connect 84 0 79 0;
#X connect 85 0 86 0;
#X connect 85 0 87 0;
#X connect 88 0 90 0;
#X connect 88 0 91 0;
#X connect 89 0 78 0;
#X connect 92 0 96 0;
#X connect 93 0 95 0;
#X connect 94 0 97 0;
#X connect 98 0 103 0;
#X connect 99 0 104 0;
#X connect 103 0 102 0;
#X connect 104 0 101 0;
#X connect 111 0 114 0;
#X connect 113 0 115 0;
#X connect 114 0 112 0;
#X connect 115 0 114 1;
#X connect 115 1 116 0;
#X connect 116 0 114 0;
#X connect 117 0 1 0;
#X connect 118 0 117 1;
#X connect 118 1 119 0;
#X connect 119 0 117 0;
#X connect 120 0 2 0;
#X connect 121 0 120 1;
#X connect 121 1 122 0;
#X connect 122 0 120 0;
#X connect 123 0 3 0;
#X connect 124 0 123 1;
#X connect 124 1 125 0;
#X connect 125 0 123 0;
#X connect 126 0 5 0;
#X connect 127 0 126 1;
#X connect 127 1 128 0;
#X connect 128 0 126 0;
#X connect 129 0 6 0;
#X connect 130 0 129 1;
#X connect 130 1 131 0;
#X connect 131 0 129 0;
#X connect 132 0 7 0;
#X connect 133 0 132 1;
#X connect 133 1 134 0;
#X connect 134 0 132 0;
#X connect 135 0 4 0;
#X connect 136 0 135 1;
#X connect 136 1 137 0;
#X connect 137 0 135 0;
#X connect 138 0 118 0;
#X connect 139 0 121 0;
#X connect 140 0 124 0;
#X connect 141 0 127 0;
#X connect 142 0 133 0;
#X connect 143 0 130 0;
#X connect 144 0 136 0;
#X restore 696 288 pd control;
#X text 693 265 into:;
#X obj 694 211 behringer_uma25s_lira8;
#X text 697 160 copy content of:;
#X floatatom 59 759 5 0 0 0 - #0-s-tune-1 -;
#X floatatom 100 759 5 0 0 0 - #0-s-tune-2 -;
#X floatatom 151 759 5 0 0 0 - #0-s-tune-3 -;
#X floatatom 192 759 5 0 0 0 - #0-s-tune-4 -;
#X floatatom 241 759 5 0 0 0 - #0-s-tune-5 -;
#X floatatom 282 759 5 0 0 0 - #0-s-tune-6 -;
#X floatatom 333 759 5 0 0 0 - #0-s-tune-7 -;
#X floatatom 375 759 5 0 0 0 - #0-s-tune-8 -;
#X obj 122 817 nbx 4 14 -1e+37 1e+37 0 0 empty \$0-s-pitch-1234 empty
0 -8 0 10 -262144 -1 -1 64 256;
#X obj 304 815 nbx 4 14 -1e+37 1e+37 0 0 empty \$0-s-pitch-5678 empty
0 -8 0 10 -262144 -1 -1 64 256;
#X obj 62 784 hsl 25 15 0 1 0 0 \$0-r-tune-add-1 empty empty -2 -8
0 10 -262144 -1 -1 0 1;
#X obj 103 784 hsl 25 15 0 1 0 0 \$0-r-tune-add-2 empty empty -2 -8
0 10 -262144 -1 -1 0 1;
#X obj 153 784 hsl 25 15 0 1 0 0 \$0-r-tune-add-3 empty empty -2 -8
0 10 -262144 -1 -1 0 1;
#X obj 195 784 hsl 25 15 0 1 0 0 \$0-r-tune-add-4 empty empty -2 -8
0 10 -262144 -1 -1 0 1;
#X obj 244 784 hsl 25 15 0 1 0 0 \$0-r-tune-add-5 empty empty -2 -8
0 10 -262144 -1 -1 0 1;
#X obj 284 784 hsl 25 15 0 1 0 0 \$0-r-tune-add-6 empty empty -2 -8
0 10 -262144 -1 -1 0 1;
#X obj 335 784 hsl 25 15 0 1 0 0 \$0-r-tune-add-7 empty empty -2 -8
0 10 -262144 -1 -1 0 1;
#X obj 378 784 hsl 25 15 0 1 0 0 \$0-r-tune-add-8 empty empty -2 -8
0 10 -262144 -1 -1 0 1;
#X connect 0 0 6 0;
#X connect 0 0 6 1;
